<svg xmlns="http://www.w3.org/2000/svg" xmlns:xlink="http://www.w3.org/1999/xlink" width="239" height="206" viewBox="0 0 239 206">
  <defs>
    <filter id="Path_301" x="91.648" y="27.433" width="94.507" height="94.453" filterUnits="userSpaceOnUse">
      <feOffset dy="3" input="SourceAlpha"/>
      <feGaussianBlur stdDeviation="3" result="blur"/>
      <feFlood flood-opacity="0.306"/>
      <feComposite operator="in" in2="blur"/>
      <feComposite in="SourceGraphic"/>
    </filter>
    <filter id="Ellipse_1" x="50.662" y="62.845" width="50.789" height="50.789" filterUnits="userSpaceOnUse">
      <feOffset dy="3" input="SourceAlpha"/>
      <feGaussianBlur stdDeviation="3" result="blur-2"/>
      <feFlood flood-opacity="0.306"/>
      <feComposite operator="in" in2="blur-2"/>
      <feComposite in="SourceGraphic"/>
    </filter>
    <filter id="Path_302" x="37" y="103.831" width="78.113" height="45.324" filterUnits="userSpaceOnUse">
      <feOffset dy="3" input="SourceAlpha"/>
      <feGaussianBlur stdDeviation="3" result="blur-3"/>
      <feFlood flood-opacity="0.306"/>
      <feComposite operator="in" in2="blur-3"/>
      <feComposite in="SourceGraphic"/>
    </filter>
    <filter id="Path_303" x="69.789" y="14.919" width="94.507" height="57.729" filterUnits="userSpaceOnUse">
      <feOffset dy="3" input="SourceAlpha"/>
      <feGaussianBlur stdDeviation="3" result="blur-4"/>
      <feFlood flood-opacity="0.306"/>
      <feComposite operator="in" in2="blur-4"/>
      <feComposite in="SourceGraphic"/>
    </filter>
    <filter id="Path_304" x="69.953" y="0" width="94.179" height="47.701" filterUnits="userSpaceOnUse">
      <feOffset dy="3" input="SourceAlpha"/>
      <feGaussianBlur stdDeviation="3" result="blur-5"/>
      <feFlood flood-opacity="0.306"/>
      <feComposite operator="in" in2="blur-5"/>
      <feComposite in="SourceGraphic"/>
    </filter>
    <filter id="Broadcast_Message" x="0" y="155" width="239" height="51" filterUnits="userSpaceOnUse">
      <feOffset dy="3" input="SourceAlpha"/>
      <feGaussianBlur stdDeviation="3" result="blur-6"/>
      <feFlood flood-opacity="0.161"/>
      <feComposite operator="in" in2="blur-6"/>
      <feComposite in="SourceGraphic"/>
    </filter>
  </defs>
  <g id="Group_13" data-name="Group 13" transform="translate(-522 -238)">
    <g id="social" transform="translate(568 244)">
      <g transform="matrix(1, 0, 0, 1, -46, -6)" filter="url(#Path_301)">
        <path id="Path_301-2" data-name="Path 301" d="M72.845,5.02V22.671A17.8,17.8,0,0,1,55.085,40.432H10V50.05A15.02,15.02,0,0,0,25.028,65.078h6.831v12.3a4.142,4.142,0,0,0,2.459,3.771,4.385,4.385,0,0,0,1.639.328,4.068,4.068,0,0,0,2.787-1.093L55.3,65.078H71.479A15.02,15.02,0,0,0,86.507,50.05V19.994A15.036,15.036,0,0,0,72.845,5.02Z" transform="translate(90.65 28.41)" fill="#fff"/>
      </g>
      <g transform="matrix(1, 0, 0, 1, -46, -6)" filter="url(#Ellipse_1)">
        <circle id="Ellipse_1-2" data-name="Ellipse 1" cx="16.394" cy="16.394" r="16.394" transform="translate(59.66 68.85)" fill="#fff"/>
      </g>
      <g transform="matrix(1, 0, 0, 1, -46, -6)" filter="url(#Path_302)">
        <path id="Path_302-2" data-name="Path 302" d="M45.085,19H15.028A15.041,15.041,0,0,0,0,34.028v8.2a4.1,4.1,0,0,0,4.1,4.1H56.014a4.1,4.1,0,0,0,4.1-4.1v-8.2A15.041,15.041,0,0,0,45.085,19Z" transform="translate(46 90.83)" fill="#fff"/>
      </g>
      <g transform="matrix(1, 0, 0, 1, -46, -6)" filter="url(#Path_303)">
        <path id="Path_303-2" data-name="Path 303" d="M82.507,4.205V32.9a9.609,9.609,0,0,1-9.563,9.563H15.563A9.609,9.609,0,0,1,6,32.9V4.205A6.783,6.783,0,0,1,6.164,2.73l35.3,20.876a5.633,5.633,0,0,0,5.574,0L82.343,2.73a6.783,6.783,0,0,1,.164,1.475Z" transform="translate(72.79 18.19)" fill="#fff"/>
      </g>
      <g transform="matrix(1, 0, 0, 1, -46, -6)" filter="url(#Path_304)">
        <path id="Path_304-2" data-name="Path 304" d="M82.209,8.088l-35.3,20.876a5.633,5.633,0,0,1-5.574,0L6.03,8.088A9.484,9.484,0,0,1,15.429,0H72.81a9.484,9.484,0,0,1,9.4,8.088Z" transform="translate(72.92 6)" fill="#fff"/>
      </g>
    </g>
    <g transform="matrix(1, 0, 0, 1, 522, 238)" filter="url(#Broadcast_Message)">
      <text id="Broadcast_Message-2" data-name="Broadcast Message" transform="translate(9 185)" fill="#fff" font-size="24" font-family="Avenir-Black, Avenir" font-weight="800"><tspan x="0" y="0">Broadcast Message</tspan></text>
    </g>
  </g>
</svg>
