<svg height="512" viewBox="0 0 64 64" width="512" xmlns="http://www.w3.org/2000/svg"><g id="Layer_27" data-name="Layer 27"><path d="m62 29h-24a1 1 0 0 0 -1 1v3.61a12.09 12.09 0 0 0 -6-1.61h-3v-2a10 10 0 0 0 3.83-6h.17a4 4 0 0 0 3-6.62v-3.38a13 13 0 0 0 -26 0v3.38a4 4 0 0 0 3 6.62h.2a10 10 0 0 0 3.8 6v2h-3a12 12 0 0 0 -12 12v18a1 1 0 0 0 1 1h33v-2h-8.15l-2.85-16.84 1.21-2.42 2.3 1.15a1 1 0 0 0 .49.11 1 1 0 0 0 .95-.68l2.76-8.32a10 10 0 0 1 5.29 2v26a1 1 0 0 0 1 1h24a1 1 0 0 0 1-1v-32a1 1 0 0 0 -1-1zm-30-7v-4a2 2 0 0 1 0 4zm-22-2a2 2 0 0 1 2-2v4a2 2 0 0 1 -2-2zm2-4a4.09 4.09 0 0 0 -1 .14v-2.14a11 11 0 0 1 22 0v2.14a4.09 4.09 0 0 0 -1-.14 1 1 0 0 0 -1-1 5 5 0 0 1 -4-2l-1.2-1.6a1 1 0 0 0 -1.6 0l-1.2 1.6a5 5 0 0 1 -4 2h-6a1 1 0 0 0 -1 1zm2 6v-5h5a7 7 0 0 0 5.6-2.8l.4-.53.4.53a7.06 7.06 0 0 0 4.6 2.73v5.07a8 8 0 0 1 -16 0zm8 10a9.92 9.92 0 0 0 4-.84v1.48l-4 4.8-4-4.8v-1.48a9.92 9.92 0 0 0 4 .84zm-5.42 8.59-2.19-6.59h2.14l3.89 4.67zm-13.58 3.41a10 10 0 0 1 9.29-10l2.76 8.28a1 1 0 0 0 .95.72 1 1 0 0 0 .45-.11l2.3-1.15 1.25 2.42-2.85 16.84h-8.15v-14h-2v14h-4zm16.18 17 2.67-16h.3l2.67 16zm3.2-18h-.76l-1.08-2.15 1.46-.73 1.46.73zm5-2.41-3.84-1.92 3.93-4.67h2.14zm17.62-9.59h10v2h-10zm16 30h-22v-30h4v3a1 1 0 0 0 1 1h12a1 1 0 0 0 1-1v-3h4z"/><path d="m46 37h-4a1 1 0 0 0 -1 1v4a1 1 0 0 0 1 1h4a1 1 0 0 0 1-1v-4a1 1 0 0 0 -1-1zm-1 4h-2v-2h2z"/><path d="m46 45h-4a1 1 0 0 0 -1 1v4a1 1 0 0 0 1 1h4a1 1 0 0 0 1-1v-4a1 1 0 0 0 -1-1zm-1 4h-2v-2h2z"/><path d="m46 53h-4a1 1 0 0 0 -1 1v4a1 1 0 0 0 1 1h4a1 1 0 0 0 1-1v-4a1 1 0 0 0 -1-1zm-1 4h-2v-2h2z"/><path d="m49 37h10v2h-10z"/><path d="m49 41h10v2h-10z"/><path d="m49 45h10v2h-10z"/><path d="m49 49h10v2h-10z"/><path d="m49 53h10v2h-10z"/><path d="m49 57h10v2h-10z"/></g></svg>